
<svg width="162" height="162" viewBox="0 0 162 162" fill="none" xmlns="http://www.w3.org/2000/svg">
    <path fill-rule="evenodd" clip-rule="evenodd" d="M85.3212 88.1496C82.9347 85.7631 79.0653 85.7631 76.6788 88.1496L42.1091 122.719L48.1588 128.769L81 95.9278L113.841 128.769L119.891 122.719L85.3212 88.1496Z" fill="#FF9D00"/>
    <path fill-rule="evenodd" clip-rule="evenodd" d="M81 93.0994L113.841 125.941L117.062 122.719L83.907 89.5639C82.3015 87.9584 79.6985 87.9584 78.093 89.5639L44.9376 122.719L48.1588 125.941L81 93.0994ZM113.841 128.769L81 95.9278L48.1588 128.769L42.1091 122.719L76.6788 88.1496C79.0653 85.7631 82.9347 85.7631 85.3212 88.1496L119.891 122.719L113.841 128.769Z" fill="black"/>
    <path fill-rule="evenodd" clip-rule="evenodd" d="M119.891 39.2807L113.841 33.231L81 66.0722L48.1588 33.231L42.1091 39.2807L76.6788 73.8504C79.0653 76.2369 82.9347 76.2369 85.3212 73.8504L119.891 39.2807Z" fill="#FF9D00"/>
    <path fill-rule="evenodd" clip-rule="evenodd" d="M81 68.9006L48.1588 36.0594L44.9376 39.2807L78.093 72.4362C79.6985 74.0416 82.3015 74.0416 83.907 72.4362L117.062 39.2807L113.841 36.0594L81 68.9006ZM48.1588 33.231L81 66.0722L113.841 33.231L119.891 39.2807L85.3212 73.8504C82.9347 76.2369 79.0653 76.2369 76.6788 73.8504L42.1091 39.2807L48.1588 33.231Z" fill="black"/>
    <path fill-rule="evenodd" clip-rule="evenodd" d="M73.8504 76.6788L39.2808 42.1091L33.2311 48.1588L66.0723 81L33.2311 113.841L39.2808 119.891L73.8504 85.3212C76.237 82.9347 76.237 79.0653 73.8504 76.6788Z" fill="#FF9D00"/>
    <path fill-rule="evenodd" clip-rule="evenodd" d="M68.9007 81L36.0595 113.841L39.2808 117.062L72.4362 83.907C74.0417 82.3015 74.0417 79.6985 72.4362 78.093L39.2808 44.9376L36.0595 48.1588L68.9007 81ZM33.2311 113.841L66.0723 81L33.2311 48.1588L39.2808 42.1091L73.8504 76.6788C76.237 79.0653 76.237 82.9347 73.8504 85.3212L39.2808 119.891L33.2311 113.841Z" fill="black"/>
    <path fill-rule="evenodd" clip-rule="evenodd" d="M128.769 48.1588L122.719 42.1091L88.1496 76.6788C85.763 79.0653 85.763 82.9347 88.1496 85.3212L122.719 119.891L128.769 113.841L95.9277 81L128.769 48.1588Z" fill="#FF9D00"/>
    <path fill-rule="evenodd" clip-rule="evenodd" d="M93.0993 81L125.941 48.1588L122.719 44.9376L89.5638 78.093C87.9583 79.6985 87.9583 82.3015 89.5638 83.907L122.719 117.062L125.941 113.841L93.0993 81ZM128.769 48.1588L95.9277 81L128.769 113.841L122.719 119.891L88.1496 85.3212C85.763 82.9347 85.763 79.0653 88.1496 76.6788L122.719 42.1091L128.769 48.1588Z" fill="black"/>
    <path d="M83.8284 83.8284C82.2663 85.3905 79.7337 85.3905 78.1716 83.8284C76.6095 82.2663 76.6095 79.7337 78.1716 78.1716C79.7337 76.6095 82.2663 76.6095 83.8284 78.1716C85.3905 79.7337 85.3905 82.2663 83.8284 83.8284Z" fill="black"/>
</svg>
